<?xml version="1.0"?><svg xmlns="http://www.w3.org/2000/svg"  viewBox="0 0 50 50" width="50px" height="50px">    <path d="M 6 4 C 4.9069372 4 4 4.9069372 4 6 L 4 44 C 4 45.093063 4.9069372 46 6 46 L 44 46 C 45.093063 46 46 45.093063 46 44 L 46 6 C 46 4.9069372 45.093063 4 44 4 L 6 4 z M 6 6 L 44 6 L 44 44 L 6 44 L 6 6 z M 29 14 C 25.99 14 23.269297 15.209922 21.279297 17.169922 C 20.699297 17.059922 20.11 17 19.5 17 C 14.26 17 10 21.26 10 26.5 C 10 31.74 14.26 36 19.5 36 L 24 36 L 29 36 C 35.07 36 40 31.07 40 25 C 40 18.93 35.07 14 29 14 z M 29 16 C 33.96 16 38 20.04 38 25 C 38 29.96 33.96 34 29 34 C 27.56 34 26.299922 33.629062 25.169922 33.039062 C 23.609922 32.229062 22.289063 30.980391 21.039062 29.650391 L 19.990234 28.509766 C 19.430234 27.899766 18.869063 27.280937 18.289062 26.710938 C 17.899062 26.320937 17.899062 25.679062 18.289062 25.289062 C 18.679063 24.899063 19.320938 24.899062 19.710938 25.289062 C 20.300937 25.889063 20.880938 26.520156 21.460938 27.160156 C 23.740937 29.650156 25.89 32 29 32 C 32.86 32 36 28.86 36 25 C 36 21.14 32.86 18 29 18 C 27.63 18 26.319219 18.390859 25.199219 19.130859 C 24.639219 18.700859 24.030859 18.300703 23.380859 17.970703 C 24.970859 16.700703 26.94 16 29 16 z M 19.5 19 C 20.67 19 21.729219 19.340859 22.699219 19.880859 C 23.219219 20.160859 23.700156 20.489375 24.160156 20.859375 C 25.160156 21.639375 26.049609 22.560156 26.849609 23.410156 C 27.139609 23.710156 27.430938 24.009062 27.710938 24.289062 C 28.100938 24.679063 28.100938 25.320938 27.710938 25.710938 C 27.320937 26.100938 26.679062 26.100938 26.289062 25.710938 C 25.999063 25.420938 25.710391 25.109062 25.400391 24.789062 C 23.700391 23.009063 21.78 21 19.5 21 C 16.47 21 14 23.47 14 26.5 C 14 29.53 16.47 32 19.5 32 C 19.82 32 20.139219 31.970156 20.449219 31.910156 C 20.989219 32.450156 21.580703 32.990234 22.220703 33.490234 C 21.360703 33.830234 20.44 34 19.5 34 C 15.36 34 12 30.64 12 26.5 C 12 22.36 15.36 19 19.5 19 z"/></svg>